<svg xmlns="http://www.w3.org/2000/svg">
    <symbol id="bookmark"
            viewBox="0 0 20 20"
            xmlns="http://www.w3.org/2000/svg">
        <path fill-rule="evenodd"
              clip-rule="evenodd"
              d="M15 4.78363C15 3.79807 14.204 3 13.221 3C11.404 3 8.596 3 6.779 3C5.796 3 5 3.79807 5 4.78363C5 7.53176 5 12.8185 5 16.0047C5 16.4198 5.256 16.7928 5.643 16.9412C6.031 17.0896 6.469 16.9833 6.746 16.6735C7.739 15.5596 8.908 14.2502 9.539 13.5424C9.656 13.411 9.824 13.3358 10 13.3358C10.176 13.3358 10.344 13.411 10.461 13.5424C11.092 14.2502 12.261 15.5596 13.254 16.6735C13.531 16.9833 13.969 17.0896 14.357 16.9412C14.744 16.7928 15 16.4198 15 16.0047C15 12.8185 15 7.53176 15 4.78363Z"
              />
    </symbol>
    <symbol id="bookmark_outline"
            viewBox="0 0 20 20"
            xmlns="http://www.w3.org/2000/svg">
        <path fill-rule="evenodd"
              clip-rule="evenodd"
              d="M10 11C10.5767 11 11.1254 11.249 11.5052 11.683L13 13.3914V5H7V13.3914L8.49485 11.683C8.87462 11.249 9.42327 11 10 11ZM13.1917 16.6476C13.3876 16.8716 13.6707 17 13.9682 17C14.538 17 15 16.538 15 15.9682V5C15 3.89543 14.1046 3 13 3H7C5.89543 3 5 3.89543 5 5V15.9682C5 16.538 5.46195 17 6.0318 17C6.32933 17 6.61238 16.8716 6.80831 16.6476L10 13L13.1917 16.6476Z"
              />
    </symbol>
    <symbol id="important_mark"
            viewBox="0 0 20 20"
            xmlns="http://www.w3.org/2000/svg">
        <path fill-rule="evenodd"
              clip-rule="evenodd"
              d="M12 15.5C12 14.672 11.328 14 10.5 14C9.672 14 9 14.672 9 15.5C9 16.328 9.672 17 10.5 17C11.328 17 12 16.328 12 15.5ZM12 4.5C12 3.672 11.328 3 10.5 3C9.672 3 9 3.672 9 4.5V10.5C9 11.328 9.672 12 10.5 12C11.328 12 12 11.328 12 10.5V4.5Z"
              />
    </symbol>
</svg>