<svg>

    <symbol id="editor_bold_icon"
            viewBox="0 0 16 16"
            xmlns="http://www.w3.org/2000/svg">
        <path fill-rule="evenodd"
              d="M12.06 3c.549.004.994.45.994 1 0 .382-.215.715-.531.883-.391.218-.469.457-.469.867v.407h-.004c-.037.707-.318 1.349-.761 1.843.443.494.724 1.136.761 1.843h.004v.407c0 .41.078.649.469.867.316.168.531.501.531.883 0 .552-.448 1-1 1h-.007c-1.1-.004-1.993-.898-1.993-2v-1c0-.552-.448-1-1-1h-.519v3c0 .552-.448 1-1 1s-1-.448-1-1V9H6c-.552 0-1 .448-1 1v1c0 1.102-.893 1.996-1.993 2H3c-.552 0-1-.448-1-1 0-.382.215-.715.531-.883.391-.218.469-.457.469-.867v-.407h.004c.037-.708.32-1.352.764-1.847-.441-.494-.72-1.134-.757-1.839h-.004V5.75c0-.41-.078-.649-.47-.867-.315-.168-.53-.501-.53-.883 0-.552.448-1 1-1h.006c1.101.004 1.994.898 1.994 2v1c0 .552.448 1 1 1h.528V4c0-.552.448-1 1-1s1 .448 1 1v3h.519c.552 0 1-.448 1-1V5c0-1.102.893-1.996 1.993-2h.013z"
        />
    </symbol>

    <symbol id="editor_italic_icon"
            viewBox="0 0 16 16"
            xmlns="http://www.w3.org/2000/svg">
        <path fill-rule="evenodd"
              d="M6.0383 9.56807l-.555 3.726c-.061.407-.44.688-.847.628-.407-.061-.689-.441-.628-.848l1.407-9.438c.061-.407.441-.688.848-.628.407.061.688.441.627.848l-.63 4.223h.788c.491-.013 2.702-.23 3.155-3.073.017-.111.035-.21.053-.301l.157-1.054c.061-.407.44-.689.847-.628.407.061.689.44.628.847l-.202 1.355c-.001.009-.003.018-.005.027-.219 1.297-.94 2.724-2.212 3.569l.004.003c1.386 1.021 1.312 2.442 1.207 3.146l-.196 1.315c-.06.407-.44.688-.847.628-.407-.061-.688-.441-.628-.848l.197-1.315c.255-1.734-1.046-2.134-1.812-2.182h-1.356z"
        />
    </symbol>

    <symbol id="editor_underline_icon"
            viewBox="0 0 16 16"
            xmlns="http://www.w3.org/2000/svg">
        <path fill-rule="evenodd"
              d="M11.233 13c.423 0 .767.344.767.767 0 .424-.344.768-.767.768H5.767c-.423 0-.767-.344-.767-.768 0-.423.344-.767.767-.767h5.466zm-.746-5.5V3.756c0-.417.339-.756.757-.756.417 0 .756.339.756.756v7.488c0 .417-.339.756-.756.756-.418 0-.757-.339-.757-.756V8.968H7.921C4.977 8.955 5.006 5.78 5.006 5.78V3.756c0-.417.339-.756.757-.756.417 0 .756.339.756.756V5.78c0 1.648 1.42 1.72 1.42 1.72h2.548z"
        />
    </symbol>

    <symbol id="editor_strike_through_icon"
            viewBox="0 0 16 16"
            xmlns="http://www.w3.org/2000/svg">
        <path fill-rule="evenodd"
              d="M5.443 6.49143l1.853-4.054c.129-.283.413-.447.705-.437.293-.009.576.154.705.437l1.852 4.054h2.69c.415 0 .752.337.752.752s-.337.752-.752.752h-2.003l2.027 4.436c.171.376.006.821-.37.992-.376.172-.821.007-.993-.369l-.94-2.058H5.03l-.94 2.058c-.172.376-.617.541-.993.369-.376-.171-.541-.616-.369-.992l2.028-4.436H2.752c-.415 0-.752-.337-.752-.752s.337-.752.752-.752h2.691zm.959 1.504l-.687 1.503h4.57l-.687-1.503H6.402zm.688-1.504h1.821l-.91-1.993-.911 1.993z"
        />
    </symbol>

    <symbol id="editor_undo_icon"
            viewBox="0 0 16 16"
            xmlns="http://www.w3.org/2000/svg">
        <path fill-rule="evenodd"
              d="M8.16 14H5.463c-.443 0-.803-.36-.803-.803 0-.444.36-.803.803-.803h2.689c2.149 0 3.894-1.245 3.894-3.394S10.309 5.607 8.16 5.606h-1.5v1.795c0 .331-.26.599-.581.599-.121 0-.234-.038-.327-.104L2.288 5.518c-.02-.012-.038-.025-.056-.039C2.091 5.37 2 5.196 2 5.001c0-.194.089-.366.227-.476h.001c.02-.016.041-.031.064-.044l3.447-2.368c.096-.071.213-.113.34-.113.321 0 .581.268.581.599V4h1.508c3.035 0 5.492 1.964 5.492 5 0 3.035-2.464 5-5.5 5z"
        />
    </symbol>

    <symbol id="editor_redo_icon"
            viewBox="0 0 16 16"
            xmlns="http://www.w3.org/2000/svg">
        <path fill-rule="evenodd"
              d="M7.508 12.394h2.689c.443 0 .803.359.803.803 0 .443-.36.803-.803.803H7.5C4.464 14 2 12.036 2 9s2.457-5 5.492-5H9V2.599C9 2.268 9.26 2 9.581 2c.127 0 .244.042.34.113l3.447 2.368c.023.013.044.028.064.044h.001c.138.11.227.282.227.476 0 .195-.091.369-.232.478-.018.014-.036.027-.056.039L9.908 7.896c-.093.066-.206.104-.327.104C9.26 8 9 7.732 9 7.401V5.606H7.5C5.351 5.607 3.614 6.851 3.614 9s1.745 3.394 3.894 3.394z"
        />
    </symbol>

    <symbol id="editor_clear_format_icon"
            viewBox="0 0 16 16"
            xmlns="http://www.w3.org/2000/svg">
        <path fill-rule="evenodd" clip-rule="evenodd"
              d="M5.15786 7.67063L2.95349 9.875 6.07849 13h.09314l2.1578-2.1578-3.17157-3.17157zm1.41421-1.41421l3.17158 3.17157L13.0466 6.125 9.87506 2.95343 6.57207 6.25642zM4.71085 14.4608c.50063.5006 1.20065.6804 1.84445.5392H13c.5523 0 1-.4477 1-1s-.4477-1-1-1H9.00006l5.46074-5.46078c.7811-.78105.7811-2.04738 0-2.82843l-3.1715-3.17157c-.7811-.78105-2.0474-.78105-2.82845 0L1.53928 8.46079c-.78105.78105-.78105 2.04741 0 2.82841l3.17157 3.1716z"
        />
    </symbol>

</svg>
