<svg xmlns="http://www.w3.org/2000/svg">
    <symbol xmlns="http://www.w3.org/2000/svg" viewBox="0 0 20 20" id="archive_folder">
        <path fill-rule="evenodd"
              clip-rule="evenodd"
              d="M7.82843 3C7.03278 3 6.26972 3.31607 5.70711 3.87868L3.87868 5.70711C3.31607 6.26972 3 7.03278 3 7.82843V14C3 15.6569 4.34315 17 6 17H14C15.6569 17 17 15.6569 17 14V7.82843C17 7.03278 16.6839 6.26972 16.1213 5.70711L14.2929 3.87868C13.7303 3.31607 12.9672 3 12.1716 3H7.82843ZM7.12132 5.29289C7.30886 5.10536 7.56321 5 7.82843 5H12.1716C12.4368 5 12.6911 5.10536 12.8787 5.29289L14.7071 7.12132C14.8946 7.30886 15 7.56321 15 7.82843V14C15 14.5523 14.5523 15 14 15H6C5.44772 15 5 14.5523 5 14V7.82843C5 7.56321 5.10536 7.30886 5.29289 7.12132L7.12132 5.29289ZM6.74076 9.69064C7.10018 9.27131 7.73148 9.22275 8.15081 9.58217L9.00002 10.1672V7.34143C9.00002 6.78915 9.44773 6.34143 10 6.34143C10.5523 6.34143 11 6.78915 11 7.34143V10.1672L11.8492 9.58217C12.2686 9.22275 12.8999 9.27131 13.2593 9.69064C13.6187 10.11 13.5701 10.7413 13.1508 11.1007L10 13.6585L6.84923 11.1007C6.4299 10.7413 6.38134 10.11 6.74076 9.69064Z"
        ></path>
    </symbol>
    <symbol xmlns="http://www.w3.org/2000/svg" viewBox="0 0 20 20" id="drafts_folder">
        <path d="M13 7C13 7.55228 12.5523 8 12 8H8C7.44771 8 7 7.55228 7 7C7 6.44772 7.44771 6 8 6H12C12.5523 6 13 6.44772 13 7Z"
        ></path>
        <path d="M12 11C12.5523 11 13 10.5523 13 10C13 9.44772 12.5523 9 12 9H8C7.44771 9 7 9.44772 7 10C7 10.5523 7.44771 11 8 11H12Z"
        ></path>
        <path d="M10 14C10.5523 14 11 13.5523 11 13C11 12.4477 10.5523 12 10 12H8C7.44771 12 7 12.4477 7 13C7 13.5523 7.44771 14 8 14H10Z"
        ></path>
        <path fill-rule="evenodd" clip-rule="evenodd"
              d="M3 15C3 16.6569 4.34315 18 6 18H14C15.6569 18 17 16.6569 17 15V5C17 3.34315 15.6569 2 14 2H6C4.34315 2 3 3.34315 3 5V15ZM6 16C5.44772 16 5 15.5523 5 15V5C5 4.44771 5.44772 4 6 4H14C14.5523 4 15 4.44772 15 5V15C15 15.5523 14.5523 16 14 16H6Z"
        ></path>
    </symbol>
    <symbol xmlns="http://www.w3.org/2000/svg" viewBox="0 0 20 20" id="important_folder">
        <path fill-rule="evenodd" clip-rule="evenodd"
              d="M3 5C3 3.89543 3.89543 3 5 3H8.38197C9.13951 3 9.83204 3.428 10.1708 4.10557L10.618 5H14C15.6569 5 17 6.34315 17 8V14C17 15.6569 15.6569 17 14 17H6C4.34315 17 3 15.6569 3 14V5ZM8.38197 5H5V14C5 14.5523 5.44772 15 6 15H14C14.5523 15 15 14.5523 15 14V8C15 7.44772 14.5523 7 14 7H9.38197L8.38197 5Z"
        ></path>
    </symbol>
    <symbol xmlns="http://www.w3.org/2000/svg" viewBox="0 0 20 20" id="incoming_folder">
        <path d="M5.29289 11.5429C4.90237 11.9334 4.90237 12.5666 5.29289 12.9571C5.68342 13.3476 6.31658 13.3476 6.70711 12.9571L8.44557 11.2186L9.3415 12.0026C9.71852 12.3325 10.2815 12.3325 10.6585 12.0026L11.5544 11.2186L13.2929 12.9571C13.6834 13.3476 14.3166 13.3476 14.7071 12.9571C15.0976 12.5666 15.0976 11.9334 14.7071 11.5429L13.0629 9.89871L14.6585 8.50258C15.0741 8.13889 15.1163 7.50713 14.7526 7.0915C14.3889 6.67586 13.7571 6.63374 13.3415 6.99742L10 9.92123L6.6585 6.99742C6.24287 6.63374 5.61111 6.67586 5.24742 7.0915C4.88374 7.50713 4.92586 8.13889 5.3415 8.50258L6.93708 9.89871L5.29289 11.5429Z"
        ></path>
        <path fill-rule="evenodd" clip-rule="evenodd"
              d="M2 6C2 4.34315 3.34315 3 5 3H15C16.6569 3 18 4.34315 18 6V14C18 15.6569 16.6569 17 15 17H5C3.34315 17 2 15.6569 2 14V6ZM5 5C4.44772 5 4 5.44772 4 6V14C4 14.5523 4.44772 15 5 15H15C15.5523 15 16 14.5523 16 14V6C16 5.44772 15.5523 5 15 5H5Z"
        ></path>
    </symbol>
    <symbol xmlns="http://www.w3.org/2000/svg" viewBox="0 0 20 20" id="sent_folder">
        <path fill-rule="evenodd" clip-rule="evenodd"
              d="M10.3827 3.07615C10.7564 3.23093 11 3.59557 11 4.00003V6.50003H12C14.7614 6.50003 17 8.73861 17 11.5V16C17 16.5523 16.5523 17 16 17C15.4477 17 15 16.5523 15 16C15 14.6193 13.8807 13.5 12.5 13.5H11V16C11 16.4045 10.7564 16.7691 10.3827 16.9239C10.009 17.0787 9.57889 16.9931 9.29289 16.7071L3.29289 10.7071C2.90237 10.3166 2.90237 9.68345 3.29289 9.29292L9.29289 3.29292C9.57889 3.00692 10.009 2.92137 10.3827 3.07615ZM15 12.2578V11.5C15 9.84318 13.6569 8.50003 12 8.50003H10C9.44772 8.50003 9 8.05231 9 7.50003V6.41424L5.41421 10L9 13.5858V12.5C9 11.9477 9.44772 11.5 10 11.5H12.5C13.4251 11.5 14.285 11.7792 15 12.2578Z"
        ></path>
    </symbol>
    <symbol xmlns="http://www.w3.org/2000/svg" viewBox="0 0 20 20" id="spam_folder">
        <path fill-rule="evenodd" clip-rule="evenodd"
              d="M15.9866 4C15.4343 4 14.9866 4.44772 14.9866 5V12C14.9866 12.5523 15.4343 13 15.9866 13C16.5389 13 16.9866 12.5523 16.9866 12V5C16.9866 4.44772 16.5389 4 15.9866 4ZM9.18924 14.838L9.93877 13.8076L10.1129 13.5682L11.7212 11.3573C11.8884 11.1361 12 10.8501 12 10.5765V8.00022C12 6.89556 11.1043 6.00011 9.99967 6.00011L6.25068 6.00001C5.8262 6.00001 5.46628 6.24066 5.34436 6.57241L3.43316 5.98307L3.4488 5.93235L3.46711 5.88254C3.92025 4.64948 5.11631 4.00001 6.25068 4.00001H6.25073L9.99965 4.00011H9.99972C12.2086 4.00014 14 5.79072 14 8.00022V10.5765C14 11.3499 13.7053 12.042 13.3302 12.5452L10.8066 16.0145L10.756 16.0841L10.6996 16.1491C10.2276 16.6928 9.49595 17.047 8.68658 16.9952C8.20568 16.9806 7.64783 16.8576 7.13939 16.4923C6.5843 16.0936 6.29782 15.5572 6.16144 15.0989C6.03698 14.6805 6.02291 14.2862 6.03202 14H4.99923C4.46215 14 3.56819 13.8799 2.84936 13.2021C1.97773 12.3802 1.87377 11.2519 2.12946 10.3148C2.25768 9.84484 2.5894 8.74432 2.87732 7.79822C3.02376 7.31705 3.16266 6.86344 3.26492 6.53025L3.38733 6.13192L3.42118 6.02198L3.43007 5.9931L3.43236 5.98566L3.43295 5.98375L3.43311 5.98326L3.43315 5.98313C3.43316 5.98309 3.43316 5.98307 5.34436 6.57241C5.34436 6.57241 4.29635 9.97107 4.05894 10.8412C3.82152 11.7114 4.41623 12 4.99923 12H8C8.29158 12 8.29315 12.3264 8.22486 12.7638C8.20621 12.8833 8.18235 13.011 8.15777 13.1426L8.15776 13.1426L8.15451 13.1601C8.11248 13.3851 8.06891 13.6209 8.04606 13.8457C8.04084 13.897 8.0367 13.9477 8.03391 13.9976C8.0031 14.5479 8.13573 14.9967 8.78675 14.9967C8.94159 15.0156 9.09112 14.951 9.18924 14.838ZM10.03 14.1453C10.0299 14.1453 10.0297 14.1426 10.0298 14.1367C10.0301 14.1423 10.0301 14.1452 10.03 14.1453Z"
        ></path>
    </symbol>
    <symbol xmlns="http://www.w3.org/2000/svg"
            viewBox="0 0 20 20"
            id="waste_folder">
        <path d="M10 2C11.1038 2 12 2.8962 12 4H15C15.5523 4 16 4.44772 16 5C16 5.55228 15.5523 6 15 6H5C4.44772 6 4 5.55228 4 5C4 4.44772 4.44772 4 5 4H8C8 2.8962 8.8962 2 10 2Z"
        ></path>
        <path d="M7.07284 7.97676C7.00823 7.42826 6.51121 7.036 5.96272 7.10062C5.41423 7.16523 5.02197 7.66225 5.08658 8.21074L6.03174 16.234C6.15038 17.2411 7.00395 18 8.01801 18H11.985C12.9991 18 13.8527 17.2411 13.9713 16.234L14.9165 8.21074C14.9811 7.66225 14.5888 7.16523 14.0403 7.10062C13.4918 7.036 12.9948 7.42826 12.9302 7.97676L11.985 16H8.01801L7.07284 7.97676Z"
        ></path>
    </symbol>

</svg>