<svg xmlns="http://www.w3.org/2000/svg">
    <symbol id="spam" width="20" height="20" viewBox="0 0 20 20" xmlns="http://www.w3.org/2000/svg">
        <path fill-rule="evenodd"
              clip-rule="evenodd"
              d="M15.9866 4C15.4343 4 14.9866 4.44772 14.9866 5V12C14.9866 12.5523 15.4343 13 15.9866 13C16.5389 13 16.9866 12.5523 16.9866 12V5C16.9866 4.44772 16.5389 4 15.9866 4ZM9.18924 14.838L9.93877 13.8076L10.1129 13.5682L11.7212 11.3573C11.8884 11.1361 12 10.8501 12 10.5765V8.00022C12 6.89556 11.1043 6.00011 9.99967 6.00011L6.25068 6.00001C5.8262 6.00001 5.46628 6.24066 5.34436 6.57241L3.43316 5.98307L3.4488 5.93235L3.46711 5.88254C3.92025 4.64948 5.11631 4.00001 6.25068 4.00001H6.25073L9.99965 4.00011H9.99972C12.2086 4.00014 14 5.79072 14 8.00022V10.5765C14 11.3499 13.7053 12.042 13.3302 12.5452L10.8066 16.0145L10.756 16.0841L10.6996 16.1491C10.2276 16.6928 9.49595 17.047 8.68658 16.9952C8.20568 16.9806 7.64783 16.8576 7.13939 16.4923C6.5843 16.0936 6.29782 15.5572 6.16144 15.0989C6.03698 14.6805 6.02291 14.2862 6.03202 14H4.99923C4.46215 14 3.56819 13.8799 2.84936 13.2021C1.97773 12.3802 1.87377 11.2519 2.12946 10.3148C2.25768 9.84484 2.5894 8.74432 2.87732 7.79822C3.02376 7.31705 3.16266 6.86344 3.26492 6.53025L3.38733 6.13192L3.42118 6.02198L3.43007 5.9931L3.43236 5.98566L3.43295 5.98375L3.43311 5.98326L3.43315 5.98313C3.43316 5.98309 3.43316 5.98307 5.34436 6.57241C5.34436 6.57241 4.29635 9.97107 4.05894 10.8412C3.82152 11.7114 4.41623 12 4.99923 12H8C8.29158 12 8.29315 12.3264 8.22486 12.7638C8.20621 12.8833 8.18235 13.011 8.15777 13.1426L8.15776 13.1426L8.15451 13.1601C8.11248 13.3851 8.06891 13.6209 8.04606 13.8457C8.04084 13.897 8.0367 13.9477 8.03391 13.9976C8.0031 14.5479 8.13573 14.9967 8.78675 14.9967C8.94159 15.0156 9.09112 14.951 9.18924 14.838ZM10.03 14.1453C10.0299 14.1453 10.0297 14.1426 10.0298 14.1367C10.0301 14.1423 10.0301 14.1452 10.03 14.1453Z"
        />
    </symbol>

    <!--Вот щя пойдёт-->
    <symbol id="archive_folder2" width="20" height="20" viewBox="0 0 20 20"
            xmlns="http://www.w3.org/2000/svg">
        <path fill-rule="evenodd" clip-rule="evenodd"
              d="M7.82843 3C7.03278 3 6.26972 3.31607 5.70711 3.87868L3.87868 5.70711C3.31607 6.26972 3 7.03278 3 7.82843V14C3 15.6569 4.34315 17 6 17H14C15.6569 17 17 15.6569 17 14V7.82843C17 7.03278 16.6839 6.26972 16.1213 5.70711L14.2929 3.87868C13.7303 3.31607 12.9672 3 12.1716 3H7.82843ZM7.12132 5.29289C7.30886 5.10536 7.56321 5 7.82843 5H12.1716C12.4368 5 12.6911 5.10536 12.8787 5.29289L14.7071 7.12132C14.8946 7.30886 15 7.56321 15 7.82843V14C15 14.5523 14.5523 15 14 15H6C5.44772 15 5 14.5523 5 14V7.82843C5 7.56321 5.10536 7.30886 5.29289 7.12132L7.12132 5.29289ZM6.74076 9.69064C7.10018 9.27131 7.73148 9.22275 8.15081 9.58217L9.00002 10.1672V7.34143C9.00002 6.78915 9.44773 6.34143 10 6.34143C10.5523 6.34143 11 6.78915 11 7.34143V10.1672L11.8492 9.58217C12.2686 9.22275 12.8999 9.27131 13.2593 9.69064C13.6187 10.11 13.5701 10.7413 13.1508 11.1007L10 13.6585L6.84923 11.1007C6.4299 10.7413 6.38134 10.11 6.74076 9.69064Z"
        />
    </symbol>


    <symbol xmlns="http://www.w3.org/2000/svg"
            viewBox="0 0 20 20"
            id="archive_folder">
        <path fill-rule="evenodd"
              clip-rule="evenodd"
              d="M7.82843 3C7.03278 3 6.26972 3.31607 5.70711 3.87868L3.87868 5.70711C3.31607 6.26972 3 7.03278 3 7.82843V14C3 15.6569 4.34315 17 6 17H14C15.6569 17 17 15.6569 17 14V7.82843C17 7.03278 16.6839 6.26972 16.1213 5.70711L14.2929 3.87868C13.7303 3.31607 12.9672 3 12.1716 3H7.82843ZM7.12132 5.29289C7.30886 5.10536 7.56321 5 7.82843 5H12.1716C12.4368 5 12.6911 5.10536 12.8787 5.29289L14.7071 7.12132C14.8946 7.30886 15 7.56321 15 7.82843V14C15 14.5523 14.5523 15 14 15H6C5.44772 15 5 14.5523 5 14V7.82843C5 7.56321 5.10536 7.30886 5.29289 7.12132L7.12132 5.29289ZM6.74076 9.69064C7.10018 9.27131 7.73148 9.22275 8.15081 9.58217L9.00002 10.1672V7.34143C9.00002 6.78915 9.44773 6.34143 10 6.34143C10.5523 6.34143 11 6.78915 11 7.34143V10.1672L11.8492 9.58217C12.2686 9.22275 12.8999 9.27131 13.2593 9.69064C13.6187 10.11 13.5701 10.7413 13.1508 11.1007L10 13.6585L6.84923 11.1007C6.4299 10.7413 6.38134 10.11 6.74076 9.69064Z"
        ></path>
    </symbol>
    <symbol xmlns="http://www.w3.org/2000/svg" viewBox="0 0 20 20" id="drafts_folder">
        <path d="M13 7C13 7.55228 12.5523 8 12 8H8C7.44771 8 7 7.55228 7 7C7 6.44772 7.44771 6 8 6H12C12.5523 6 13 6.44772 13 7Z"
        ></path>
        <path d="M12 11C12.5523 11 13 10.5523 13 10C13 9.44772 12.5523 9 12 9H8C7.44771 9 7 9.44772 7 10C7 10.5523 7.44771 11 8 11H12Z"
        ></path>
        <path d="M10 14C10.5523 14 11 13.5523 11 13C11 12.4477 10.5523 12 10 12H8C7.44771 12 7 12.4477 7 13C7 13.5523 7.44771 14 8 14H10Z"
        ></path>
        <path fill-rule="evenodd" clip-rule="evenodd"
              d="M3 15C3 16.6569 4.34315 18 6 18H14C15.6569 18 17 16.6569 17 15V5C17 3.34315 15.6569 2 14 2H6C4.34315 2 3 3.34315 3 5V15ZM6 16C5.44772 16 5 15.5523 5 15V5C5 4.44771 5.44772 4 6 4H14C14.5523 4 15 4.44772 15 5V15C15 15.5523 14.5523 16 14 16H6Z"
        ></path>
    </symbol>
    <symbol xmlns="http://www.w3.org/2000/svg" viewBox="0 0 20 20" id="important_folder">
        <path fill-rule="evenodd" clip-rule="evenodd"
              d="M3 5C3 3.89543 3.89543 3 5 3H8.38197C9.13951 3 9.83204 3.428 10.1708 4.10557L10.618 5H14C15.6569 5 17 6.34315 17 8V14C17 15.6569 15.6569 17 14 17H6C4.34315 17 3 15.6569 3 14V5ZM8.38197 5H5V14C5 14.5523 5.44772 15 6 15H14C14.5523 15 15 14.5523 15 14V8C15 7.44772 14.5523 7 14 7H9.38197L8.38197 5Z"
        ></path>
    </symbol>
    <symbol xmlns="http://www.w3.org/2000/svg" viewBox="0 0 20 20" id="incoming_folder">
        <path d="M5.29289 11.5429C4.90237 11.9334 4.90237 12.5666 5.29289 12.9571C5.68342 13.3476 6.31658 13.3476 6.70711 12.9571L8.44557 11.2186L9.3415 12.0026C9.71852 12.3325 10.2815 12.3325 10.6585 12.0026L11.5544 11.2186L13.2929 12.9571C13.6834 13.3476 14.3166 13.3476 14.7071 12.9571C15.0976 12.5666 15.0976 11.9334 14.7071 11.5429L13.0629 9.89871L14.6585 8.50258C15.0741 8.13889 15.1163 7.50713 14.7526 7.0915C14.3889 6.67586 13.7571 6.63374 13.3415 6.99742L10 9.92123L6.6585 6.99742C6.24287 6.63374 5.61111 6.67586 5.24742 7.0915C4.88374 7.50713 4.92586 8.13889 5.3415 8.50258L6.93708 9.89871L5.29289 11.5429Z"
        ></path>
        <path fill-rule="evenodd" clip-rule="evenodd"
              d="M2 6C2 4.34315 3.34315 3 5 3H15C16.6569 3 18 4.34315 18 6V14C18 15.6569 16.6569 17 15 17H5C3.34315 17 2 15.6569 2 14V6ZM5 5C4.44772 5 4 5.44772 4 6V14C4 14.5523 4.44772 15 5 15H15C15.5523 15 16 14.5523 16 14V6C16 5.44772 15.5523 5 15 5H5Z"
        ></path>
    </symbol>
    <symbol xmlns="http://www.w3.org/2000/svg" viewBox="0 0 16 16" id="new_folder">
        <path d="M7 12C7 12.5523 7.44772 13 8 13C8.55229 13 9 12.5523 9 12V9H12C12.5523 9 13 8.55228 13 8C13 7.44772 12.5523 7 12 7H9V4C9 3.44772 8.55228 3 8 3C7.44771 3 7 3.44772 7 4L7 7H4C3.44772 7 3 7.44772 3 8C3 8.55228 3.44772 9 4 9H7L7 12Z"
        ></path>
    </symbol>
    <symbol xmlns="http://www.w3.org/2000/svg" viewBox="0 0 20 20" id="sent_folder">
        <path fill-rule="evenodd" clip-rule="evenodd"
              d="M10.3827 3.07615C10.7564 3.23093 11 3.59557 11 4.00003V6.50003H12C14.7614 6.50003 17 8.73861 17 11.5V16C17 16.5523 16.5523 17 16 17C15.4477 17 15 16.5523 15 16C15 14.6193 13.8807 13.5 12.5 13.5H11V16C11 16.4045 10.7564 16.7691 10.3827 16.9239C10.009 17.0787 9.57889 16.9931 9.29289 16.7071L3.29289 10.7071C2.90237 10.3166 2.90237 9.68345 3.29289 9.29292L9.29289 3.29292C9.57889 3.00692 10.009 2.92137 10.3827 3.07615ZM15 12.2578V11.5C15 9.84318 13.6569 8.50003 12 8.50003H10C9.44772 8.50003 9 8.05231 9 7.50003V6.41424L5.41421 10L9 13.5858V12.5C9 11.9477 9.44772 11.5 10 11.5H12.5C13.4251 11.5 14.285 11.7792 15 12.2578Z"
        ></path>
    </symbol>
    <symbol xmlns="http://www.w3.org/2000/svg" viewBox="0 0 20 20" id="spam_folder">
        <path fill-rule="evenodd" clip-rule="evenodd"
              d="M15.9866 4C15.4343 4 14.9866 4.44772 14.9866 5V12C14.9866 12.5523 15.4343 13 15.9866 13C16.5389 13 16.9866 12.5523 16.9866 12V5C16.9866 4.44772 16.5389 4 15.9866 4ZM9.18924 14.838L9.93877 13.8076L10.1129 13.5682L11.7212 11.3573C11.8884 11.1361 12 10.8501 12 10.5765V8.00022C12 6.89556 11.1043 6.00011 9.99967 6.00011L6.25068 6.00001C5.8262 6.00001 5.46628 6.24066 5.34436 6.57241L3.43316 5.98307L3.4488 5.93235L3.46711 5.88254C3.92025 4.64948 5.11631 4.00001 6.25068 4.00001H6.25073L9.99965 4.00011H9.99972C12.2086 4.00014 14 5.79072 14 8.00022V10.5765C14 11.3499 13.7053 12.042 13.3302 12.5452L10.8066 16.0145L10.756 16.0841L10.6996 16.1491C10.2276 16.6928 9.49595 17.047 8.68658 16.9952C8.20568 16.9806 7.64783 16.8576 7.13939 16.4923C6.5843 16.0936 6.29782 15.5572 6.16144 15.0989C6.03698 14.6805 6.02291 14.2862 6.03202 14H4.99923C4.46215 14 3.56819 13.8799 2.84936 13.2021C1.97773 12.3802 1.87377 11.2519 2.12946 10.3148C2.25768 9.84484 2.5894 8.74432 2.87732 7.79822C3.02376 7.31705 3.16266 6.86344 3.26492 6.53025L3.38733 6.13192L3.42118 6.02198L3.43007 5.9931L3.43236 5.98566L3.43295 5.98375L3.43311 5.98326L3.43315 5.98313C3.43316 5.98309 3.43316 5.98307 5.34436 6.57241C5.34436 6.57241 4.29635 9.97107 4.05894 10.8412C3.82152 11.7114 4.41623 12 4.99923 12H8C8.29158 12 8.29315 12.3264 8.22486 12.7638C8.20621 12.8833 8.18235 13.011 8.15777 13.1426L8.15776 13.1426L8.15451 13.1601C8.11248 13.3851 8.06891 13.6209 8.04606 13.8457C8.04084 13.897 8.0367 13.9477 8.03391 13.9976C8.0031 14.5479 8.13573 14.9967 8.78675 14.9967C8.94159 15.0156 9.09112 14.951 9.18924 14.838ZM10.03 14.1453C10.0299 14.1453 10.0297 14.1426 10.0298 14.1367C10.0301 14.1423 10.0301 14.1452 10.03 14.1453Z"
        ></path>
    </symbol>
    <symbol xmlns="http://www.w3.org/2000/svg" viewBox="0 0 20 20" id="theme_palette">
        <path d="M14.2839 13.0429L14.2838 13.0429C14.2113 13.0351 14.1417 13.0276 14.0749 13.0205C13.3917 12.9472 13.0097 12.9062 12.954 12.9024C12.4492 12.8675 11.917 12.8884 11.4745 13.1128C11.2289 13.2373 11.0126 13.4238 10.8602 13.6775C10.7128 13.9233 10.6589 14.176 10.6445 14.388C10.6183 14.7717 10.7166 15.1649 10.7842 15.4249C10.8073 15.5136 10.8297 15.5965 10.8511 15.676C10.9064 15.8808 10.9558 16.0636 10.9956 16.2669C11.1342 16.9744 10.599 17.5 10 17.5C7.92866 17.5 6.05503 16.6616 4.6967 15.3033C3.33837 13.945 2.5 12.0713 2.5 10C2.5 7.92866 3.33837 6.05503 4.6967 4.6967C6.05503 3.33837 7.92866 2.5 10 2.5C12.0713 2.5 13.945 3.33837 15.3033 4.6967C16.6616 6.05503 17.5 7.92866 17.5 10C17.5 11.414 17.0434 12.1534 16.5314 12.5478C15.9854 12.9683 15.1903 13.1401 14.2839 13.0429C14.2839 13.0429 14.2839 13.0429 14.2839 13.0429Z"
              stroke-width="2" fill="none"/>
        <rect stroke="none" x="10.8" y="4.80005" width="2.5" height="2.5" rx="1.25"/>
        <rect stroke="none" x="13.2" y="8.19995" width="2.5" height="2.5" rx="1.25"/>
        <rect stroke="none" x="4.30005" y="8.19995" width="2.5" height="2.5" rx="1.25"/>
        <rect stroke="none" x="6.59998" y="4.80005" width="2.5" height="2.5" rx="1.25"/>
    </symbol>
    <symbol xmlns="http://www.w3.org/2000/svg"
            viewBox="0 0 20 20"
            id="waste_folder">
        <path d="M10 2C11.1038 2 12 2.8962 12 4H15C15.5523 4 16 4.44772 16 5C16 5.55228 15.5523 6 15 6H5C4.44772 6 4 5.55228 4 5C4 4.44772 4.44772 4 5 4H8C8 2.8962 8.8962 2 10 2Z"
        ></path>
        <path d="M7.07284 7.97676C7.00823 7.42826 6.51121 7.036 5.96272 7.10062C5.41423 7.16523 5.02197 7.66225 5.08658 8.21074L6.03174 16.234C6.15038 17.2411 7.00395 18 8.01801 18H11.985C12.9991 18 13.8527 17.2411 13.9713 16.234L14.9165 8.21074C14.9811 7.66225 14.5888 7.16523 14.0403 7.10062C13.4918 7.036 12.9948 7.42826 12.9302 7.97676L11.985 16H8.01801L7.07284 7.97676Z"
        ></path>
    </symbol>

    <symbol xmlns="http://www.w3.org/2000/svg"
            viewBox="0 0 20 20"
            id="gear">
        <path d="M11.6718 7.50022C11.1784 7.17058 10.5984 6.99463 10.0051 6.99463C9.20942 6.99463 8.44635 7.3107 7.88375 7.87331C7.32114 8.43592 7.00507 9.19898 7.00507 9.99463C7.00507 10.588 7.18101 11.168 7.51066 11.6613C7.8403 12.1547 8.30884 12.5392 8.85702 12.7663C9.40519 12.9933 10.0084 13.0527 10.5903 12.937C11.1723 12.8212 11.7068 12.5355 12.1264 12.1159C12.5459 11.6964 12.8317 11.1618 12.9474 10.5799C13.0632 9.99796 13.0038 9.39476 12.7767 8.84658C12.5496 8.2984 12.1651 7.82986 11.6718 7.50022ZM9.1736 10.5502C9.06371 10.3857 9.00507 10.1924 9.00507 9.99463C9.00507 9.72941 9.11042 9.47506 9.29796 9.28752C9.4855 9.09999 9.73985 8.99463 10.0051 8.99463C10.2028 8.99463 10.3962 9.05328 10.5606 9.16316C10.7251 9.27304 10.8533 9.42922 10.9289 9.61195C11.0046 9.79467 11.0244 9.99574 10.9859 10.1897C10.9473 10.3837 10.852 10.5619 10.7122 10.7017C10.5723 10.8416 10.3941 10.9368 10.2002 10.9754C10.0062 11.014 9.80511 10.9942 9.62238 10.9185C9.43966 10.8428 9.28348 10.7146 9.1736 10.5502Z"
        />
        <path d="M9.02511 2.0547H11.0251C11.1977 2.0537 11.3676 2.09738 11.5183 2.18149C11.669 2.2656 11.7954 2.38729 11.8851 2.5347L12.7351 3.9547C12.8248 4.10212 12.9512 4.22381 13.1019 4.30792C13.2526 4.39203 13.4225 4.43571 13.5951 4.4347H15.7851C15.9596 4.43576 16.1308 4.48246 16.2817 4.57018C16.4326 4.65789 16.5579 4.78357 16.6451 4.9347L17.7051 6.8547C17.7929 7.00672 17.8391 7.17917 17.8391 7.3547C17.8391 7.53024 17.7929 7.70269 17.7051 7.8547L16.7051 9.5447C16.6173 9.69672 16.5711 9.86917 16.5711 10.0447C16.5711 10.2202 16.6173 10.3927 16.7051 10.5447L17.7051 12.2347C17.7929 12.3867 17.8391 12.5592 17.8391 12.7347C17.8391 12.9102 17.7929 13.0827 17.7051 13.2347L16.6451 15.0747C16.5579 15.2258 16.4326 15.3515 16.2817 15.4392C16.1308 15.5269 15.9596 15.5737 15.7851 15.5747H13.5951C13.4225 15.5737 13.2526 15.6174 13.1019 15.7015C12.9512 15.7856 12.8248 15.9073 12.7351 16.0547L11.8851 17.4547C11.7966 17.604 11.6708 17.7277 11.52 17.8136C11.3692 17.8995 11.1987 17.9447 11.0251 17.9447H9.02511C8.85156 17.9447 8.68102 17.8995 8.53023 17.8136C8.37945 17.7277 8.25361 17.604 8.16511 17.4547L7.27511 16.0347C7.18537 15.8873 7.059 15.7656 6.9083 15.6815C6.7576 15.5974 6.58769 15.5537 6.41511 15.5547H4.22511C4.05059 15.5537 3.87939 15.5069 3.72852 15.4192C3.57765 15.3315 3.45236 15.2058 3.36511 15.0547L2.29511 13.1547C2.20734 13.0027 2.16113 12.8302 2.16113 12.6547C2.16113 12.4792 2.20734 12.3067 2.29511 12.1547L3.29511 10.4647C3.38288 10.3127 3.42908 10.1402 3.42908 9.9647C3.42908 9.78917 3.38288 9.61672 3.29511 9.4647L2.29511 7.7747C2.20734 7.62269 2.16113 7.45024 2.16113 7.2747C2.16113 7.09917 2.20734 6.92672 2.29511 6.7747L3.36511 4.9347C3.45236 4.78357 3.57765 4.65789 3.72852 4.57018C3.87939 4.48246 4.05059 4.43576 4.22511 4.4347H6.41511C6.58769 4.43571 6.7576 4.39203 6.9083 4.30792C7.059 4.22381 7.18537 4.10212 7.27511 3.9547L8.16511 2.5347C8.25485 2.38729 8.38122 2.2656 8.53192 2.18149C8.68262 2.09738 8.85252 2.0537 9.02511 2.0547ZM11.0251 4.9847L10.4651 4.0547H9.54511L8.98511 4.9847C8.71798 5.42736 8.341 5.79348 7.89071 6.04753C7.44042 6.30158 6.93212 6.43495 6.41511 6.4347H4.80511L4.62511 6.7547L4.32511 7.2647L5.03511 8.4947C5.31544 8.9613 5.46354 9.49537 5.46354 10.0397C5.46354 10.584 5.31544 11.1181 5.03511 11.5847L4.32511 12.7747L4.61511 13.2647L4.80511 13.6047H6.41511C6.93212 13.6045 7.44042 13.7378 7.89071 13.9919C8.341 14.2459 8.71798 14.612 8.98511 15.0547L9.54511 15.9847H10.4651L11.0251 15.0547C11.2873 14.6046 11.6621 14.2305 12.1127 13.9693C12.5634 13.708 13.0742 13.5686 13.5951 13.5647H15.2051L15.3951 13.2347L15.6851 12.7347L14.9651 11.5447C14.6848 11.0781 14.5367 10.544 14.5367 9.9997C14.5367 9.45537 14.6848 8.9213 14.9651 8.4547L15.6451 7.2647L15.3451 6.7447L15.1651 6.4347H13.5951C13.0781 6.43495 12.5698 6.30158 12.1195 6.04753C11.6692 5.79348 11.2922 5.42736 11.0251 4.9847Z"
        />
    </symbol>

    <symbol xmlns="http://www.w3.org/2000/svg"
            viewBox="0 0 16 16"
            id="cross">
        <path d="M7.983 6.455l4.34-4.34a1.105 1.105 0 011.562 1.562l-4.34 4.34 4.34 4.34a1.08 1.08 0 11-1.528 1.528l-4.34-4.34-4.34 4.34a1.105 1.105 0 01-1.562-1.562l4.34-4.34-4.34-4.34a1.08 1.08 0 111.528-1.528l4.34 4.34z"
        />
    </symbol>


</svg>