<svg xmlns="http://www.w3.org/2000/svg">

    <symbol id="attach"
            viewBox="0 0 20 20"
            xmlns="http://www.w3.org/2000/svg">
        <path d="M16.8282 4.58722C15.2661 3.02513 12.7334 3.02513 11.1713 4.58722L11.0822 4.67633C11.3664 4.84417 11.6343 5.05016 11.8785 5.29433C12.1226 5.53849 12.3286 5.80637 12.4965 6.09054L12.5856 6.00144C13.3666 5.22039 14.6329 5.22039 15.414 6.00144C16.195 6.78248 16.195 8.04881 15.414 8.82986L9.12156 15.1223C7.94999 16.2939 6.0505 16.2939 4.87892 15.1223C3.70735 13.9507 3.70735 12.0512 4.87892 10.8797L8.34296 7.41565C8.73349 7.02513 9.36665 7.02513 9.75717 7.41565C10.1477 7.80617 10.1477 8.43934 9.75717 8.82986L7.05054 11.5365C6.66002 11.927 6.66002 12.5602 7.05054 12.9507C7.44107 13.3412 8.07423 13.3412 8.46476 12.9507L11.1714 10.2441C12.343 9.0725 12.343 7.17301 11.1714 6.00144C9.99981 4.82986 8.10032 4.82986 6.92875 6.00144L3.46471 9.46544C1.51209 11.4181 1.51209 14.5839 3.46471 16.5365C5.41733 18.4891 8.58316 18.4891 10.5358 16.5365L16.8282 10.2441C18.3903 8.68198 18.3903 6.14932 16.8282 4.58722Z"
        />
    </symbol>
    <symbol id="checkbox_check_mark"
            viewBox="0 0 8 6"
            xmlns="http://www.w3.org/2000/svg">
        <path fill-rule="evenodd"
              clip-rule="evenodd"
              d="M7.7 0.3C7.3 -0.1 6.7 -0.1 6.3 0.3L3 3.6L1.7 2.3C1.3 1.9 0.7 1.9 0.3 2.3C-0.1 2.7 -0.1 3.3 0.3 3.7L2.3 5.7C2.5 5.9 2.7 6 3 6C3.3 6 3.5 5.9 3.7 5.7L7.7 1.7C8.1 1.3 8.1 0.7 7.7 0.3V0.3Z"
              fill="white"/>
    </symbol>

    <symbol id="ru_flag"
            viewBox="0 0 15 12"
            fill="none"
            xmlns="http://www.w3.org/2000/svg">
        <rect width="15" height="4" fill="#F0F0F0"/>
        <rect y="4" width="15" height="4" fill="#0D269A"/>
        <rect y="8" width="15" height="4" fill="#EB1200"/>
    </symbol>
    <symbol id="us_flag"
            viewBox="0 0 15 12"
            fill="none"
            xmlns="http://www.w3.org/2000/svg">
        <rect x="0.329102" width="15" height="12" fill="#D62D24"/>
        <mask id="mask0_4904_13258" style="mask-type:alpha" maskUnits="userSpaceOnUse" x="0" y="0" width="16"
              height="12">
            <rect x="0.329102" width="15" height="12" fill="#D62D24"/>
        </mask>
        <g mask="url(#mask0_4904_13258)">
            <rect x="6" y="1" width="10" height="1" fill="white"/>
            <rect x="6" y="3" width="10" height="1" fill="white"/>
            <rect x="6" y="5" width="10" height="1" fill="white"/>
            <rect x="-1" y="7" width="17" height="1" fill="white"/>
            <rect y="9" width="16" height="1" fill="white"/>
            <rect y="11" width="16" height="1" fill="white"/>
            <rect width="8" height="6" fill="#1745B2"/>
        </g>
    </symbol>

    <symbol id="done_sign"
            viewBox="0 0 40 40"
            xmlns="http://www.w3.org/2000/svg">
        <path d="M31 14C30 13 28.5 13 27.5 14L17.5 24L12.5 19C11.5 18 10 18 9 19C8 20 8 21.5 9 22.5L15.75 29.25C16.25 29.75 16.75 30 17.5 30C18.25 30 18.75 29.75 19.25 29.25L31 17.5C32 16.5 32 15 31 14Z"
        />
    </symbol>

    <symbol id="chevron_down"
            viewBox="0 0 20 20"
            xmlns="http://www.w3.org/2000/svg">
        <path fill-rule="evenodd"
              clip-rule="evenodd"
              d="M13.7071 7.79289C14.0976 8.18342 14.0976 8.81658 13.7071 9.20711L10.7071 12.2071C10.3166 12.5976 9.68341 12.5976 9.29289 12.2071L6.29289 9.20711C5.90236 8.81658 5.90236 8.18342 6.29289 7.79289C6.68341 7.40237 7.31657 7.40237 7.7071 7.79289L9.99999 10.0858L12.2929 7.79289C12.6834 7.40237 13.3166 7.40237 13.7071 7.79289Z"
        />
    </symbol>




    <symbol xmlns="http://www.w3.org/2000/svg"
            viewBox="0 0 16 16"
            id="new_folder">
        <path d="M7 12C7 12.5523 7.44772 13 8 13C8.55229 13 9 12.5523 9 12V9H12C12.5523 9 13 8.55228 13 8C13 7.44772 12.5523 7 12 7H9V4C9 3.44772 8.55228 3 8 3C7.44771 3 7 3.44772 7 4L7 7H4C3.44772 7 3 7.44772 3 8C3 8.55228 3.44772 9 4 9H7L7 12Z"
        ></path>
    </symbol>
    <symbol xmlns="http://www.w3.org/2000/svg"
            viewBox="0 0 20 20"
            id="theme_palette">
        <path d="M14.2839 13.0429L14.2838 13.0429C14.2113 13.0351 14.1417 13.0276 14.0749 13.0205C13.3917 12.9472 13.0097 12.9062 12.954 12.9024C12.4492 12.8675 11.917 12.8884 11.4745 13.1128C11.2289 13.2373 11.0126 13.4238 10.8602 13.6775C10.7128 13.9233 10.6589 14.176 10.6445 14.388C10.6183 14.7717 10.7166 15.1649 10.7842 15.4249C10.8073 15.5136 10.8297 15.5965 10.8511 15.676C10.9064 15.8808 10.9558 16.0636 10.9956 16.2669C11.1342 16.9744 10.599 17.5 10 17.5C7.92866 17.5 6.05503 16.6616 4.6967 15.3033C3.33837 13.945 2.5 12.0713 2.5 10C2.5 7.92866 3.33837 6.05503 4.6967 4.6967C6.05503 3.33837 7.92866 2.5 10 2.5C12.0713 2.5 13.945 3.33837 15.3033 4.6967C16.6616 6.05503 17.5 7.92866 17.5 10C17.5 11.414 17.0434 12.1534 16.5314 12.5478C15.9854 12.9683 15.1903 13.1401 14.2839 13.0429C14.2839 13.0429 14.2839 13.0429 14.2839 13.0429Z"
              stroke-width="2"
              fill="none"/>
        <rect stroke="none" x="10.8" y="4.80005" width="2.5" height="2.5" rx="1.25"/>
        <rect stroke="none" x="13.2" y="8.19995" width="2.5" height="2.5" rx="1.25"/>
        <rect stroke="none" x="4.30005" y="8.19995" width="2.5" height="2.5" rx="1.25"/>
        <rect stroke="none" x="6.59998" y="4.80005" width="2.5" height="2.5" rx="1.25"/>
    </symbol>

    <symbol id="burger_menu"
            viewBox="0 0 21 22"
            xmlns="http://www.w3.org/2000/svg">
        <path fill-rule="evenodd"
              clip-rule="evenodd"
              d="M16.3078 14.9512C16.8597 14.9472 17.311 15.3919 17.3151 15.9439C17.3191 16.4959 16.8744 16.9471 16.3224 16.9512L4.32275 17.0392C3.77076 17.0433 3.31949 16.5986 3.31544 16.0466C3.31139 15.4946 3.75609 15.0433 4.30808 15.0393L16.3078 14.9512ZM16.2711 9.95137C16.8231 9.94732 17.2743 10.392 17.2784 10.944C17.2824 11.496 16.8377 11.9473 16.2857 11.9513L4.28607 12.0394C3.73408 12.0434 3.28281 11.5987 3.27876 11.0467C3.27471 10.4947 3.71941 10.0435 4.27139 10.0394L16.2711 9.95137ZM16.2344 4.95151C16.7864 4.94746 17.2377 5.39216 17.2417 5.94414C17.2458 6.49613 16.801 6.9474 16.2491 6.95145L4.24939 7.03949C3.6974 7.04353 3.24613 6.59883 3.24208 6.04685C3.23803 5.49486 3.68273 5.04359 4.23471 5.03954L16.2344 4.95151Z"
              />
    </symbol>

    <symbol id="pencil"
            viewBox="0 0 17 18"
            xmlns="http://www.w3.org/2000/svg">
        <path fill-rule="evenodd"
              clip-rule="evenodd"
              d="M12.3472 7.04254L5.04103 14.4567L3.46662 14.7152L3.64861 13.0203L10.9226 5.63874L12.3472 7.04254ZM13.751 5.61799L14.4529 4.90573C14.8405 4.51235 14.8359 3.8792 14.4425 3.49155C14.0491 3.10391 13.416 3.10855 13.0283 3.50193L12.3264 4.21419L13.751 5.61799ZM15.8774 6.30953L6.00815 16.3247L1.1975 17.1146L1.7345 12.1133L11.6038 2.09813C12.7667 0.917992 14.6662 0.904058 15.8463 2.067C17.0264 3.22995 17.0404 5.12939 15.8774 6.30953Z"
              />
    </symbol>



    <symbol xmlns="http://www.w3.org/2000/svg"
            viewBox="0 0 20 20"
            id="gear">
        <path d="M11.6718 7.50022C11.1784 7.17058 10.5984 6.99463 10.0051 6.99463C9.20942 6.99463 8.44635 7.3107 7.88375 7.87331C7.32114 8.43592 7.00507 9.19898 7.00507 9.99463C7.00507 10.588 7.18101 11.168 7.51066 11.6613C7.8403 12.1547 8.30884 12.5392 8.85702 12.7663C9.40519 12.9933 10.0084 13.0527 10.5903 12.937C11.1723 12.8212 11.7068 12.5355 12.1264 12.1159C12.5459 11.6964 12.8317 11.1618 12.9474 10.5799C13.0632 9.99796 13.0038 9.39476 12.7767 8.84658C12.5496 8.2984 12.1651 7.82986 11.6718 7.50022ZM9.1736 10.5502C9.06371 10.3857 9.00507 10.1924 9.00507 9.99463C9.00507 9.72941 9.11042 9.47506 9.29796 9.28752C9.4855 9.09999 9.73985 8.99463 10.0051 8.99463C10.2028 8.99463 10.3962 9.05328 10.5606 9.16316C10.7251 9.27304 10.8533 9.42922 10.9289 9.61195C11.0046 9.79467 11.0244 9.99574 10.9859 10.1897C10.9473 10.3837 10.852 10.5619 10.7122 10.7017C10.5723 10.8416 10.3941 10.9368 10.2002 10.9754C10.0062 11.014 9.80511 10.9942 9.62238 10.9185C9.43966 10.8428 9.28348 10.7146 9.1736 10.5502Z"
        />
        <path d="M9.02511 2.0547H11.0251C11.1977 2.0537 11.3676 2.09738 11.5183 2.18149C11.669 2.2656 11.7954 2.38729 11.8851 2.5347L12.7351 3.9547C12.8248 4.10212 12.9512 4.22381 13.1019 4.30792C13.2526 4.39203 13.4225 4.43571 13.5951 4.4347H15.7851C15.9596 4.43576 16.1308 4.48246 16.2817 4.57018C16.4326 4.65789 16.5579 4.78357 16.6451 4.9347L17.7051 6.8547C17.7929 7.00672 17.8391 7.17917 17.8391 7.3547C17.8391 7.53024 17.7929 7.70269 17.7051 7.8547L16.7051 9.5447C16.6173 9.69672 16.5711 9.86917 16.5711 10.0447C16.5711 10.2202 16.6173 10.3927 16.7051 10.5447L17.7051 12.2347C17.7929 12.3867 17.8391 12.5592 17.8391 12.7347C17.8391 12.9102 17.7929 13.0827 17.7051 13.2347L16.6451 15.0747C16.5579 15.2258 16.4326 15.3515 16.2817 15.4392C16.1308 15.5269 15.9596 15.5737 15.7851 15.5747H13.5951C13.4225 15.5737 13.2526 15.6174 13.1019 15.7015C12.9512 15.7856 12.8248 15.9073 12.7351 16.0547L11.8851 17.4547C11.7966 17.604 11.6708 17.7277 11.52 17.8136C11.3692 17.8995 11.1987 17.9447 11.0251 17.9447H9.02511C8.85156 17.9447 8.68102 17.8995 8.53023 17.8136C8.37945 17.7277 8.25361 17.604 8.16511 17.4547L7.27511 16.0347C7.18537 15.8873 7.059 15.7656 6.9083 15.6815C6.7576 15.5974 6.58769 15.5537 6.41511 15.5547H4.22511C4.05059 15.5537 3.87939 15.5069 3.72852 15.4192C3.57765 15.3315 3.45236 15.2058 3.36511 15.0547L2.29511 13.1547C2.20734 13.0027 2.16113 12.8302 2.16113 12.6547C2.16113 12.4792 2.20734 12.3067 2.29511 12.1547L3.29511 10.4647C3.38288 10.3127 3.42908 10.1402 3.42908 9.9647C3.42908 9.78917 3.38288 9.61672 3.29511 9.4647L2.29511 7.7747C2.20734 7.62269 2.16113 7.45024 2.16113 7.2747C2.16113 7.09917 2.20734 6.92672 2.29511 6.7747L3.36511 4.9347C3.45236 4.78357 3.57765 4.65789 3.72852 4.57018C3.87939 4.48246 4.05059 4.43576 4.22511 4.4347H6.41511C6.58769 4.43571 6.7576 4.39203 6.9083 4.30792C7.059 4.22381 7.18537 4.10212 7.27511 3.9547L8.16511 2.5347C8.25485 2.38729 8.38122 2.2656 8.53192 2.18149C8.68262 2.09738 8.85252 2.0537 9.02511 2.0547ZM11.0251 4.9847L10.4651 4.0547H9.54511L8.98511 4.9847C8.71798 5.42736 8.341 5.79348 7.89071 6.04753C7.44042 6.30158 6.93212 6.43495 6.41511 6.4347H4.80511L4.62511 6.7547L4.32511 7.2647L5.03511 8.4947C5.31544 8.9613 5.46354 9.49537 5.46354 10.0397C5.46354 10.584 5.31544 11.1181 5.03511 11.5847L4.32511 12.7747L4.61511 13.2647L4.80511 13.6047H6.41511C6.93212 13.6045 7.44042 13.7378 7.89071 13.9919C8.341 14.2459 8.71798 14.612 8.98511 15.0547L9.54511 15.9847H10.4651L11.0251 15.0547C11.2873 14.6046 11.6621 14.2305 12.1127 13.9693C12.5634 13.708 13.0742 13.5686 13.5951 13.5647H15.2051L15.3951 13.2347L15.6851 12.7347L14.9651 11.5447C14.6848 11.0781 14.5367 10.544 14.5367 9.9997C14.5367 9.45537 14.6848 8.9213 14.9651 8.4547L15.6451 7.2647L15.3451 6.7447L15.1651 6.4347H13.5951C13.0781 6.43495 12.5698 6.30158 12.1195 6.04753C11.6692 5.79348 11.2922 5.42736 11.0251 4.9847Z"
        />
    </symbol>

    <symbol xmlns="http://www.w3.org/2000/svg"
            viewBox="0 0 16 16"
            id="cross">
        <path d="M7.983 6.455l4.34-4.34a1.105 1.105 0 011.562 1.562l-4.34 4.34 4.34 4.34a1.08 1.08 0 11-1.528 1.528l-4.34-4.34-4.34 4.34a1.105 1.105 0 01-1.562-1.562l4.34-4.34-4.34-4.34a1.08 1.08 0 111.528-1.528l4.34 4.34z"
        />
    </symbol>

    <symbol id="chevron_left"
            viewBox="0 0 20 20"
            xmlns="http://www.w3.org/2000/svg">
        <path fill-rule="evenodd"
              clip-rule="evenodd"
              d="M12.2071 15.2071C11.8166 15.5976 11.1834 15.5976 10.7929 15.2071L6.29289 10.7071C5.90237 10.3166 5.90237 9.68342 6.29289 9.29289L10.7929 4.79289C11.1834 4.40237 11.8166 4.40237 12.2071 4.79289C12.5976 5.18342 12.5976 5.81658 12.2071 6.20711L8.41421 10L12.2071 13.7929C12.5976 14.1834 12.5976 14.8166 12.2071 15.2071Z"
              />
    </symbol>

    <symbol id="read_on_mark"
            viewBox="0 0 16 16"
            xmlns="http://www.w3.org/2000/svg">
        <path fill-rule="evenodd"
              clip-rule="evenodd"
              d="M8 11C9.65685 11 11 9.65685 11 8C11 6.34315 9.65685 5 8 5C6.34315 5 5 6.34315 5 8C5 9.65685 6.34315 11 8 11Z"
              />
    </symbol>

    <symbol id="empty_search_list"
            viewBox="0 0 100 100"
            xmlns="http://www.w3.org/2000/svg">
        <path fill-rule="evenodd" clip-rule="evenodd"
              d="M47 25.5C35.1259 25.5 25.5 35.1259 25.5 47C25.5 58.8741 35.1259 68.5 47 68.5C58.8741 68.5 68.5 58.8741 68.5 47C68.5 35.1259 58.8741 25.5 47 25.5ZM22.5 47C22.5 33.469 33.469 22.5 47 22.5C60.531 22.5 71.5 33.469 71.5 47C71.5 60.531 60.531 71.5 47 71.5C33.469 71.5 22.5 60.531 22.5 47Z"
              />
        <path fill-rule="evenodd" clip-rule="evenodd"
              d="M62.9393 62.9393C63.5251 62.3536 64.4749 62.3536 65.0607 62.9393L77.0607 74.9393C77.6464 75.5251 77.6464 76.4749 77.0607 77.0607C76.4749 77.6464 75.5251 77.6464 74.9393 77.0607L62.9393 65.0607C62.3536 64.4749 62.3536 63.5251 62.9393 62.9393Z"
              />
        <path fill-rule="evenodd" clip-rule="evenodd"
              d="M39.4393 39.9393C40.0251 39.3536 40.9749 39.3536 41.5607 39.9393L53.5607 51.9393C54.1464 52.5251 54.1464 53.4749 53.5607 54.0607C52.9749 54.6464 52.0251 54.6464 51.4393 54.0607L39.4393 42.0607C38.8536 41.4749 38.8536 40.5251 39.4393 39.9393Z"
              />
        <path fill-rule="evenodd" clip-rule="evenodd"
              d="M53.5607 39.9393C52.9749 39.3536 52.0251 39.3536 51.4393 39.9393L39.4393 51.9393C38.8536 52.5251 38.8536 53.4749 39.4393 54.0607C40.0251 54.6464 40.9749 54.6464 41.5607 54.0607L53.5607 42.0607C54.1464 41.4749 54.1464 40.5251 53.5607 39.9393Z"
              />
    </symbol>


    <symbol id="download_alt"
            viewBox="0 0 16 16"
            xmlns="http://www.w3.org/2000/svg">
        <path fill-rule="evenodd" clip-rule="evenodd"
              d="M5.15081 6.24099C4.73148 5.88157 4.10018 5.93013 3.74076 6.34945C3.38134 6.76878 3.4299 7.40008 3.84923 7.7595L8.00002 11.3173L12.1508 7.7595C12.5701 7.40008 12.6187 6.76878 12.2593 6.34945C11.8999 5.93013 11.2686 5.88157 10.8492 6.24099L9.00002 7.82602V2.00024C9.00002 1.44796 8.5523 1.00024 8.00002 1.00024C7.44773 1.00024 7.00002 1.44796 7.00002 2.00024V7.82602L5.15081 6.24099ZM2 13.0002C1.44772 13.0002 1 13.448 1 14.0002C1 14.5525 1.44772 15.0002 2 15.0002H14C14.5523 15.0002 15 14.5525 15 14.0002C15 13.448 14.5523 13.0002 14 13.0002H2Z"
              />
    </symbol>

    <symbol id="small_cross"
            viewBox="0 0 20 20"
            xmlns="http://www.w3.org/2000/svg">
        <path fill-rule="evenodd"
              clip-rule="evenodd"
              d="M8.58625 10.0204l-2.293-2.29897c-.391-.39101-.391-1.02666 0-1.41767.39-.39102 1.024-.39102 1.414 0l2.29295 2.29895 2.2931-2.29895c.3899-.39102 1.024-.39102 1.414 0 .3899.39101.3899 1.02666 0 1.41767l-2.2931 2.29897 2.2931 2.2989c.3899.3911.3899 1.0267 0 1.4177-.39.391-1.0241.391-1.414 0l-2.2931-2.2989-2.29295 2.2989c-.39.391-1.024.391-1.414 0-.391-.391-.391-1.0266 0-1.4177l2.293-2.2989z"
        />
    </symbol>





</svg>
